<svg width="32" height="32" viewBox="0 0 32 32" fill="none" xmlns="http://www.w3.org/2000/svg">
<path d="M0.320312 18.2631C0.320312 16.7053 0.6263 15.3238 1.23827 14.1184C1.86879 12.913 2.72185 11.9857 3.79744 11.3367C4.87303 10.6876 6.06916 10.3631 7.38583 10.3631C8.38725 10.3631 9.3423 10.5856 10.251 11.0307C11.1597 11.4572 11.8829 12.0321 12.4207 12.7553V5.43945H16.3707V26.024H12.4207V23.743C11.9386 24.5034 11.2617 25.1154 10.3901 25.579C9.51847 26.0426 8.50779 26.2744 7.35802 26.2744C6.05989 26.2744 4.87303 25.9406 3.79744 25.273C2.72185 24.6054 1.86879 23.6689 1.23827 22.4635C0.6263 21.2395 0.320312 19.8394 0.320312 18.2631ZM12.4485 18.3187C12.4485 17.373 12.2631 16.5663 11.8922 15.8986C11.5213 15.2125 11.0206 14.6932 10.3901 14.3409C9.75955 13.97 9.08267 13.7846 8.35943 13.7846C7.63619 13.7846 6.96858 13.9607 6.3566 14.3131C5.74463 14.6654 5.24392 15.1847 4.85449 15.8708C4.48359 16.5384 4.29815 17.3359 4.29815 18.2631C4.29815 19.1903 4.48359 20.0063 4.85449 20.711C5.24392 21.3971 5.74463 21.9257 6.3566 22.2966C6.98712 22.6675 7.65473 22.8529 8.35943 22.8529C9.08267 22.8529 9.75955 22.6767 10.3901 22.3244C11.0206 21.9535 11.5213 21.4342 11.8922 20.7666C12.2631 20.0805 12.4485 19.2645 12.4485 18.3187Z" fill="#1F232A"></path>
<path d="M23.4746 10.2305C27.853 10.2305 31.4032 13.7799 31.4033 18.1582C31.4033 22.5366 27.853 26.0859 23.4746 26.0859C21.0816 26.0858 18.9379 25.0242 17.4844 23.3477V12.9697C18.9379 11.293 21.0814 10.2306 23.4746 10.2305Z" fill="#004BEF"></path>
</svg>